<svg xmlns="http://www.w3.org/2000/svg" viewBox="0 0 576 512"><!--!Font Awesome Free 6.7.1 by @fontawesome - https://fontawesome.com License - https://fontawesome.com/license/free Copyright 2024 Fonticons, Inc.--><path d="M407.8 294.7c-3.3-.4-6.7-.8-10-1.3c3.4 .4 6.7 .9 10 1.3zM288 227.1C261.9 176.4 190.9 81.9 124.9 35.3C61.6-9.4 37.5-1.7 21.6 5.5C3.3 13.8 0 41.9 0 58.4S9.1 194 15 213.9c19.5 65.7 89.1 87.9 153.2 80.7c3.3-.5 6.6-.9 10-1.4c-3.3 .5-6.6 1-10 1.4C74.3 308.6-9.1 342.8 1.6 373.9c6.8 19.7 35.6 35.9 128.4 35.9c52.8 0 94.8-8.5 125.9-21.9c2.6-1.1 5.1-2.3 7.6-3.5c-2.5 1.2-5 2.4-7.6 3.5c26.6 11.5 64.5 19.1 108.9 21.3c2.7 .1 5.5 .2 8.3 .2c85.1 0 116-16.2 122.8-35.9c10.7-31.1-72.8-65.3-166.6-79.3c-3.3-.4-6.7-.8-10-1.3c3.4 .4 6.7 .9 10 1.3c64.1 7.1 133.6-15.1 153.2-80.7C566.9 194 576 75 576 58.4s-3.3-44.7-21.6-52.9c-15.8-7.1-40-14.9-103.2 29.8C385.1 81.9 314.1 176.4 288 227.1z"/></svg>
